# AST/ASF file generated using VICON BodyLanguage
# -----------------------------------------------
:version 1.10
:name VICON
:units
  mass 1.0
  length 0.45
  angle deg
:documentation
   .ast/.asf automatically generated from VICON data using
   VICON BodyBuilder and BodyLanguage model FoxedUp or BRILLIANT.MOD
:root
   order TX TY TZ RX RY RZ
   axis XYZ
   position 0 0 0  
   orientation 0 0 0 
:bonedata
  begin
     id 1 
     name lhipjoint
     direction 0.57768 -0.667037 0.470475 
     length 2.36008 
     axis 0 0 0  XYZ
  end
  begin
     id 2 
     name lfemur
     direction 0.34202 -0.939693 0  
     length 6.97235  
     axis 0 0 20  XYZ
    dof rx ry rz
    limits (-160.0 20.0)
           (-70.0 70.0)
           (-60.0 70.0)
  end
  begin
     id 3 
     name ltibia
     direction 0.34202 -0.939693 0   
     length 6.93428   
     axis 0 0 20   XYZ
    dof rx
    limits (-10.0 170.0)
  end
  begin
     id 4 
     name lfoot
     direction 0.133018 -0.365463 0.921272   
     length 2.18603   
     axis -90 7.62852e-016 20   XYZ
    dof rx rz
    limits (-45.0 90.0)
           (-70.0 20.0)
  end
  begin
     id 5 
     name ltoes
     direction 1.53519e-011 -4.22055e-011 1   
     length 1.07924   
     axis -90 7.62852e-016 20   XYZ
    dof rx
    limits (-90.0 20.0)
  end
  begin
     id 6 
     name rhipjoint
     direction -0.577712 -0.667019 0.470462   
     length 2.36015  
     axis 0 0 0  XYZ 
  end
  begin
     id 7 
     name rfemur
     direction -0.34202 -0.939693 0   
     length 6.71195   
     axis 0 0 -20   XYZ
    dof rx ry rz
    limits (-160.0 20.0)
           (-70.0 70.0)
           (-70.0 60.0)
  end
  begin
     id 8 
     name rtibia
     direction -0.34202 -0.939693 0   
     length 7.04592   
     axis 0 0 -20   XYZ
    dof rx
    limits (-10.0 170.0)
 end
 begin
     id 9 
     name rfoot
     direction -0.113796 -0.312651 0.943027   
     length 2.03846  
     axis -90 -7.62852e-016 -20   XYZ
    dof rx rz
    limits (-45.0 90.0)
           (-20.0 70.0)
  end
  begin
     id 10 
     name rtoes
     direction -1.53586e-011 -4.218e-011 1   
     length 1.01562   
     axis -90 -7.62852e-016 -20   XYZ
    dof rx
    limits (-90.0 20.0)
  end
  begin
     id 11 
     name lowerback
     direction -0.0417299 0.991937 -0.119667   
     length 2.05257   
     axis 0 0 0   XYZ
    dof rx ry rz
    limits (-20.0 45.0)
           (-30.0 30.0)
           (-30.0 30.0)
  end
  begin
     id 12 
     name upperback
     direction -0.00017666 0.999999 0.00105178   
     length 2.05693   
     axis 0 0 0   XYZ
    dof rx ry rz
    limits (-20.0 45.0)
           (-30.0 30.0)
           (-30.0 30.0)
  end
  begin
     id 13 
     name thorax
     direction 0.0185169 0.998203 0.0569866   
     length 2.0932   
     axis 0 0 0   XYZ
    dof rx ry rz
    limits (-20.0 45.0)
           (-30.0 30.0)
           (-30.0 30.0)
  end
  begin
     id 14 
     name lowerneck
     direction -0.0212406 0.982645 0.184277   
     length 1.72509   
     axis 0 0 0   XYZ
    dof rx ry rz
    limits (-20.0 45.0)
           (-30.0 30.0)
           (-30.0 30.0)
  end
  begin
     id 15 
     name upperneck
     direction 0.00528579 0.965323 -0.261004   
     length 1.76294   
     axis 0 0 0   XYZ
    dof rx ry rz
    limits (-20.0 45.0)
           (-30.0 30.0)
           (-30.0 30.0)
  end
  begin
     id 16
     name head
     direction 0.00695421 0.994078 -0.108445  
     length 1.78678  
     axis 0 0 0   XYZ
    dof rx ry rz
    limits (-20.0 45.0)
           (-30.0 30.0)
           (-30.0 30.0)
  end
  begin
     id 17 
     name lclavicle
     direction 0.97277 0.211305 -0.095232  
     length 3.84823  
     axis 0 0 0   XYZ
    dof ry rz
    limits (-20.0 10.0)
           (0.0 20.0)
  end
  begin
     id 18 
     name lhumerus
     direction 1 -4.48957e-011 -1.98313e-027   
     length 4.97185   
     axis 180 -30 -90   XYZ
    dof rx ry rz
    limits (-60.0 90.0)
           (-90.0 90.0)
           (-90.0 90.0)
  end
  begin
     id 19
     name lradius
     direction 1 -4.4898e-011 7.31063e-027   
     length 3.35811   
     axis 180 -30 -90   XYZ
    dof rx
    limits (-10.0 170.0)
  end
  begin
     id 20
     name lwrist
     direction 1 -4.48938e-011 9.95048e-027   
     length 1.67905   
     axis -8.75986e-015 90 90   XYZ
    dof ry
    limits (-180.0 0.0)
 end
  begin
     id 21 
     name lhand
     direction 1 -4.4901e-011 1.9901e-026   
     length 0.622776   
     axis -1.26985e-014 90 90   XYZ
    dof rx rz
    limits (-90.0 90.0)
           (-45.0 45.0)
  end
  begin
     id 22 
     name lfingers
     direction 1 -4.48961e-011 3.98019e-026   
     length 0.502098   
     axis -2.5397e-014 90 90   XYZ
    dof rx
    limits (0.0 90.0)
  end
  begin
     id 23
     name lthumb
     direction 0.707107 -6.34933e-011 0.707107   
     length 0.720915   
     axis -90 45 2.85299e-015   XYZ
    dof rx rz
    limits (-45.0 45.0)
           (-45.0 45.0)
  end
  begin
     id 24 
     name rclavicle
     direction -0.990867 0.133739 -0.0172226   
     length 3.78845  
     axis 0 0 0   XYZ 
    dof ry rz
    limits (-10.0 20.0)
           (-20.0 0.0)
  end
  begin
     id 25 
     name rhumerus
     direction -1 -4.48972e-011 -1.99267e-027  
     length 4.96493   
     axis 180 30 90   XYZ
    dof rx ry rz
    limits (-90.0 60.0)
           (-90.0 90.0)
           (-90.0 90.0)
  end
  begin
     id 26 
     name rradius
     direction -1 -4.48969e-011 8.96093e-027   
     length 3.34929   
     axis 180 30 90   XYZ
    dof rx
    limits (-10.0 170.0)
  end
  begin
     id 27 
     name rwrist
     direction -1 -4.48953e-011 9.95048e-027   
     length 1.67464   
     axis -8.75986e-015 -90 -90   XYZ
    dof ry
    limits (-180.0 0.0)
  end
  begin
     id 28
     name rhand
     direction -1 -4.49001e-011 1.9901e-026   
     length 0.638041   
     axis -1.26985e-014 -90 -90   XYZ
    dof rx rz
    limits (-90.0 90.0)
           (-45.0 45.0)
  end
  begin
     id 29
     name rfingers
     direction -1 -4.48967e-011 3.98019e-026   
     length 0.514405   
     axis -2.5397e-014 -90 -90   XYZ
    dof rx
    limits (0.0 90.0)
  end
  begin
     id 30
     name rthumb
     direction -0.707107 -6.34904e-011 0.707107   
     length 0.738586   
     axis -90 -45 -2.85299e-015   XYZ
    dof rx rz
    limits (-45.0 45.0)
           (-45.0 45.0)
  end
:hierarchy
  begin
    root lhipjoint rhipjoint lowerback
    lhipjoint lfemur
    lfemur ltibia
    ltibia lfoot
    lfoot ltoes
    rhipjoint rfemur
    rfemur rtibia
    rtibia rfoot
    rfoot rtoes
    lowerback upperback
    upperback thorax
    thorax lowerneck lclavicle rclavicle
    lowerneck upperneck
    upperneck head
    lclavicle lhumerus
    lhumerus lradius
    lradius lwrist
    lwrist lhand lthumb
    lhand lfingers
    rclavicle rhumerus
    rhumerus rradius
    rradius rwrist
    rwrist rhand rthumb
    rhand rfingers
  end

#!OML:ASF E:\Mandelcareful walks\Project 1\Capture day 1\Session 1\Subject1.ASF
:FULLY-SPECIFIED
:DEGREES
299
root -13.3166 14.8369 0.700378 -175.788 74.9109 -191.688
lowerback 29.8786 3.05392 -5.01248
upperback 7.62253 2.9671 -4.5155
thorax -7.7547 1.86872 -3.29544
lowerneck -28.4489 3.57107 -1.99841
upperneck 23.2709 5.73373 0.737683
head 12.3052 2.46936 1.66358
rclavicle -2.16675e-014 -2.0276e-014
rhumerus -24.4195 3.17276 -90.2426
rradius 30.3868
rwrist -51.7042
rhand 5.88252 -38.8872
rfingers 7.12502
rthumb 31.2114 -66.2482
lclavicle -2.16675e-014 -2.0276e-014
lhumerus 38.4342 -88.5844 57.4414
lradius 51.2109
lwrist 2.68391
lhand -7.40581 -6.07415
lfingers 7.12502
lthumb 18.4805 23.068
rfemur -35.0589 -19.092 7.37555
rtibia 68.2144
rfoot -26.7281 -19.6604
rtoes -18.9308
lfemur -57.4985 10.5758 -18.083
ltibia 61.7034
lfoot -14.9951 5.10277
ltoes -6.13348
300
root -13.2652 14.8567 0.522036 -176.206 76.2942 -192.07
lowerback 29.9632 3.07723 -5.52225
upperback 7.79433 2.86301 -4.48399
thorax -7.61912 1.82685 -2.9271
lowerneck -28.9424 3.04927 -2.70176
upperneck 23.2861 5.05228 1.60807
head 12.3652 2.22426 1.996
rclavicle 7.55382e-015 1.98785e-015
rhumerus -24.4569 3.8788 -90.19
rradius 31.438
rwrist -52.46
rhand 5.5369 -36.7414
rfingers 7.12502
rthumb 30.8819 -64.1653
lclavicle 7.55382e-015 1.98785e-015
lhumerus 37.106 -88.0801 58.3377
lradius 51.6035
lwrist 0.537349
lhand -4.14059 -6.40941
lfingers 7.12502
lthumb 21.6189 22.4037
rfemur -35.608 -18.7421 6.94225
rtibia 68.446
rfoot -25.0962 -19.9756
rtoes -17.4764
lfemur -57.0922 11.0517 -18.3923
ltibia 62.3533
lfoot -16.1272 5.62934
ltoes -6.19059
301
root -13.2174 14.8691 0.345629 -176.83 77.7941 -192.767
lowerback 29.9394 3.18907 -5.89779
upperback 7.90262 2.90284 -4.45038
thorax -7.49807 1.84548 -2.68114
lowerneck -28.9977 2.51009 -3.19995
upperneck 23.0002 4.32596 2.19988
head 12.2538 1.94796 2.16412
rclavicle -2.14687e-014 -7.15625e-015
rhumerus -24.4624 4.15509 -89.9005
rradius 32.5118
rwrist -53.0029
rhand 6.40832 -36.1682
rfingers 7.12502
rthumb 31.7123 -63.4314
lclavicle -2.14687e-014 -7.15625e-015
lhumerus 49.1848 -88.2505 45.9199
lradius 52.1071
lwrist 0.313982
lhand -6.06763 -7.17349
lfingers 7.12502
lthumb 19.7673 21.8414
rfemur -36.4907 -18.4652 6.599
rtibia 68.6872
rfoot -23.6455 -20.3809
rtoes -15.8863
lfemur -56.8095 11.6684 -18.8385
ltibia 62.9809
lfoot -17.1342 6.19889
ltoes -6.56619
302
root -13.1736 14.8751 0.178053 -177.137 79.2917 -193.162
lowerback 30.1152 3.0621 -6.15238
upperback 7.87373 2.63022 -4.44443
thorax -7.6229 1.71201 -2.4436
lowerneck -29.1764 2.18512 -3.62912
upperneck 22.8764 3.93726 2.6077
head 12.2311 1.79657 2.31945
rclavicle -1.78906e-014 -5.60573e-014
rhumerus -24.4506 4.74063 -89.8621
rradius 33.5725
rwrist -53.356
rhand 6.64802 -37.7493
rfingers 7.12502
rthumb 31.9406 -64.9671
lclavicle -1.78906e-014 -5.60573e-014
lhumerus 33.9971 -87.6798 60.5939
lradius 52.4714
lwrist -0.971968
lhand -5.85874 -7.78977
lfingers 7.12502
lthumb 19.9681 21.2043
rfemur -37.4446 -18.1853 6.52085
rtibia 68.8076
rfoot -22.6942 -20.8726
rtoes -14.5024
lfemur -56.6203 12.3565 -19.2017
ltibia 63.5927
lfoot -18.0288 6.78935
ltoes -6.02495
303
root -13.1348 14.8887 0.0217891 -177.123 80.6817 -193.17
lowerback 30.2278 2.96627 -6.5674
upperback 7.76299 2.34729 -4.30896
thorax -7.81884 1.57137 -1.96298
lowerneck -28.8511 2.21789 -3.23303
upperneck 22.5736 3.84081 2.44032
head 12.0696 1.77139 2.15904
rclavicle 1.19271e-015 -1.74931e-014
rhumerus -24.8047 5.57783 -89.9724
rradius 34.7365
rwrist -53.909
rhand 7.17361 -37.6725
rfingers 7.12502
rthumb 32.4409 -64.789
lclavicle 1.19271e-015 -1.74931e-014
lhumerus 25.3227 -87.5326 68.6562
lradius 53.4352
lwrist 0.991823
lhand -10.7629 -7.24448
lfingers 7.12502
lthumb 15.2489 22.1735
rfemur -38.3114 -17.8641 6.64876
rtibia 68.7055
rfoot -22.2152 -21.4466
rtoes -13.9247
lfemur -56.4208 12.9704 -19.4205
ltibia 64.2113
lfoot -19.0268 7.29545
ltoes -4.98018
304
root -13.0933 14.9019 -0.13419 -177.361 82.2008 -193.385
lowerback 30.2385 2.87461 -6.82922
upperback 7.89155 2.16255 -4.25913
thorax -7.6811 1.48192 -1.68399
lowerneck -29.2389 2.10689 -3.07262
upperneck 22.4474 3.60034 2.50719
head 12.1013 1.68812 2.11972
rclavicle 6.36111e-015 -2.94201e-014
rhumerus -24.6687 6.37061 -90.1193
rradius 35.7033
rwrist -54.4407
rhand 7.02278 -37.5646
rfingers 7.12502
rthumb 32.2974 -64.7104
lclavicle 6.36111e-015 -2.94201e-014
lhumerus 30.3085 -87.2746 63.0683
lradius 54.0099
lwrist 0.820415
lhand -6.84648 -6.67368
lfingers 7.12502
lthumb 19.0185 22.4165
rfemur -39.2092 -17.4812 6.80571
rtibia 68.3419
rfoot -21.8704 -21.8861
rtoes -14.2092
lfemur -56.1397 13.5907 -19.6353
ltibia 64.8321
lfoot -20.1407 7.98096
ltoes -5.22998
305
root -13.0405 14.9031 -0.297457 -180.06 84.0587 -196.128
lowerback 29.9902 2.86504 -7.26973
upperback 7.87384 2.02024 -4.21546
thorax -7.59049 1.40574 -1.31924
lowerneck -28.9777 2.0491 -3.19699
upperneck 22.2124 3.5313 2.61047
head 11.9596 1.66515 2.15527
rclavicle 7.95139e-016 4.37326e-014
rhumerus -24.8004 7.18066 -90.0942
rradius 36.6421
rwrist -54.7083
rhand 7.06957 -38.3817
rfingers 7.12502
rthumb 32.3419 -65.5185
lclavicle 7.95139e-016 4.37326e-014
lhumerus 25.7307 -86.7625 67.3212
lradius 54.3491
lwrist -0.631248
lhand -9.80212 -7.67257
lfingers 7.12502
lthumb 16.1742 21.6726
rfemur -40.3053 -17.0407 6.71896
rtibia 67.7772
rfoot -21.6433 -21.7211
rtoes -13.7792
lfemur -55.7955 14.2999 -20.0803
ltibia 65.4296
lfoot -21.239 8.81062
ltoes -5.75693
306
root -12.9838 14.8939 -0.457319 -187.727 86.1254 -203.885
lowerback 29.6185 3.01751 -7.68246
upperback 7.74727 2.07557 -4.30283
thorax -7.56477 1.42091 -1.18892
lowerneck -28.449 2.00446 -3.08711
upperneck 21.9024 3.39282 2.6448
head 11.7503 1.6239 2.10771
rclavicle 1.03368e-014 -2.06736e-014
rhumerus -25.263 7.48182 -90.2223
rradius 37.5511
rwrist -55.0744
rhand 7.21227 -37.8304
rfingers 7.12502
rthumb 32.4777 -64.9393
lclavicle 1.03368e-014 -2.06736e-014
lhumerus 48.7854 -88.2498 43.6631
lradius 55.1376
lwrist 5.42528
lhand -16.613 -8.10013
lfingers 7.12502
lthumb 9.60876 21.6607
rfemur -41.6034 -16.4574 6.54489
rtibia 67.0796
rfoot -21.5133 -21.3195
rtoes -12.4208
lfemur -55.4663 15.1808 -20.654
ltibia 65.9947
lfoot -22.2881 9.64326
ltoes -5.93651
307
root -12.9245 14.8932 -0.586332 -200.104 87.3706 -216.084
lowerback 29.6744 2.86781 -8.01299
upperback 7.84235 1.79475 -4.1902
thorax -7.48047 1.28512 -0.772244
lowerneck -28.6776 2.00774 -3.2284
upperneck 21.7109 3.4229 2.76903
head 11.7109 1.64376 2.18179
rclavicle -3.49861e-014 -3.18055e-015
rhumerus -25.3239 8.03936 -90.3753
rradius 38.1857
rwrist -55.5122
rhand 7.32922 -36.8879
rfingers 7.12502
rthumb 32.589 -63.9739
lclavicle -3.49861e-014 -3.18055e-015
lhumerus 54.8488 -88.3851 37.2281
lradius 55.82
lwrist 9.23366
lhand -19.4739 -9.20991
lfingers 7.12502
lthumb 6.84772 20.6593
rfemur -42.3285 -16.1733 6.54308
rtibia 66.3028
rfoot -21.9016 -21.2538
rtoes -10.7567
lfemur -54.8847 15.6309 -21.011
ltibia 66.4266
lfoot -23.1444 10.5151
ltoes -6.84029
308
root -12.8722 14.8988 -0.708797 -224.042 88.234 -239.788
lowerback 29.9324 2.62902 -8.1327
upperback 7.86202 1.42832 -4.08723
thorax -7.56836 1.11046 -0.466966
lowerneck -28.6804 2.06266 -3.0784
upperneck 21.531 3.44501 2.72111
head 11.6453 1.66181 2.13864
rclavicle -3.26007e-014 -3.18055e-015
rhumerus -25.3467 8.23553 -90.4568
rradius 38.8631
rwrist -55.7621
rhand 8.50264 -35.8813
rfingers 7.12502
rthumb 33.7048 -62.7301
lclavicle -3.26007e-014 -3.18055e-015
lhumerus 12.3588 -85.4288 79.7717
lradius 55.1485
lwrist -4.56109
lhand -14.0521 -10.4376
lfingers 7.12502
lthumb 12.0789 19.1937
rfemur -43.0081 -16.0582 6.64871
rtibia 65.5356
rfoot -22.5765 -21.0876
rtoes -7.78019
lfemur -54.3017 15.8927 -21.294
ltibia 66.7896
lfoot -23.8002 11.5678
ltoes -8.34078
309
root -12.824 14.9008 -0.831812 -295.193 88.2162 -310.887
lowerback 29.8687 2.68177 -8.41567
upperback 7.78354 1.38378 -4.05623
thorax -7.62897 1.08149 -0.254809
lowerneck -28.6532 2.1127 -2.85313
upperneck 21.3745 3.46364 2.54525
head 11.5881 1.66637 2.03498
rclavicle -7.15625e-015 1.66979e-014
rhumerus -25.3412 8.38815 -90.5049
rradius 39.5824
rwrist -56.2823
rhand 8.14351 -37.2857
rfingers 7.12502
rthumb 33.3635 -64.2085
lclavicle -7.15625e-015 1.66979e-014
lhumerus 24.565 -88.0423 66.7801
lradius 56.249
lwrist 6.80117
lhand -31.9677 -13.6641
lfingers 7.12502
lthumb -5.21752 16.2517
rfemur -44.3414 -15.3764 6.82867
rtibia 64.7983
rfoot -22.8421 -20.8647
rtoes -4.55578
lfemur -53.9116 16.7196 -21.6177
ltibia 67.1636
lfoot -24.5538 12.7862
ltoes -9.69037
